<?xml version="1.0" encoding="UTF-8"?>
<!DOCTYPE svg PUBLIC "-//W3C//DTD SVG 1.1//EN" "http://www.w3.org/Graphics/SVG/1.1/DTD/svg11.dtd">
<!-- Creator: CorelDRAW X7 -->
<svg xmlns="http://www.w3.org/2000/svg" xml:space="preserve" width="45mm" height="20mm" version="1.1" style="shape-rendering:geometricPrecision; text-rendering:geometricPrecision; image-rendering:optimizeQuality; fill-rule:evenodd; clip-rule:evenodd"
viewBox="0 0 4500 2000"
 xmlns:xlink="http://www.w3.org/1999/xlink">
 <defs>
  <style type="text/css">
   <![CDATA[
    .str2 {stroke:#373435;stroke-width:25}
    .str0 {stroke:#373435;stroke-width:20}
    .str1 {stroke:#373435;stroke-width:10}
    .fil3 {fill:#F0E928;fill-rule:nonzero}
    .fil1 {fill:#B4B6DB;fill-rule:nonzero}
    .fil5 {fill:#87A7D7;fill-rule:nonzero}
    .fil2 {fill:#87A7D7;fill-rule:nonzero}
    .fil4 {fill:#5E56A3;fill-rule:nonzero}
    .fil0 {fill:#3551A1;fill-rule:nonzero}
   ]]>
  </style>
 </defs>
 <g id="Capa_x0020_1">
  <metadata id="CorelCorpID_0Corel-Layer"/>
  <path class="fil0 str0" d="M3867 1010l0 119c-10,1 -18,2 -26,2 -46,0 -84,-15 -115,-46 -31,-30 -46,-68 -46,-114 0,-44 15,-82 46,-113 31,-31 69,-47 114,-47 49,0 88,15 117,44 28,29 43,69 43,119l0 151 -116 0 0 -143c0,-16 -3,-29 -11,-38 -8,-10 -19,-15 -32,-15 -12,0 -22,5 -31,14 -9,8 -13,19 -13,31 0,13 4,23 12,31 8,8 18,12 30,12 10,0 19,-2 28,-7z"/>
  <path class="fil1 str0" d="M3568 681c16,0 29,6 41,17 11,11 17,24 17,38 0,17 -6,30 -16,40 -11,10 -25,15 -42,15 -17,0 -31,-5 -41,-15 -11,-10 -16,-23 -16,-40 0,-14 5,-27 17,-38 11,-11 25,-17 40,-17z"/>
  <path class="fil1 str0" d="M3514 818l115 0 0 259c0,54 -13,97 -39,129 -32,41 -77,61 -134,61 -18,0 -38,-4 -60,-11l0 -109c20,10 36,14 49,14 46,0 69,-33 69,-101l0 -242z"/>
  <path class="fil0 str1" d="M3272 1010l0 119c-9,1 -18,2 -25,2 -46,0 -85,-15 -116,-46 -30,-30 -46,-68 -46,-114 0,-44 16,-82 47,-113 31,-31 69,-47 113,-47 50,0 89,15 118,44 28,29 42,69 42,119l0 151 -115 0 0 -143c0,-16 -4,-29 -12,-38 -7,-10 -18,-15 -31,-15 -12,0 -23,5 -31,14 -9,8 -14,19 -14,31 0,13 4,23 12,31 8,8 18,12 31,12 10,0 19,-2 27,-7z"/>
  <path class="fil1 str0" d="M2977 681c16,0 29,5 41,17 11,10 17,23 17,38 0,16 -5,30 -16,40 -11,10 -25,15 -42,15 -17,0 -30,-5 -41,-15 -11,-10 -16,-24 -16,-40 0,-15 5,-28 17,-38 11,-12 25,-17 40,-17z"/>
  <polygon class="fil2 str0" points="3034,818 3034,1125 2919,1125 2919,818 "/>
  <polygon class="fil0 str0" points="2900,704 2717,1149 2535,704 2680,704 2718,836 2761,704 "/>
  <polygon class="fil3 str0" points="2231,715 2303,715 2231,787 2166,787 "/>
  <path class="fil2 str0" d="M2233 1010l0 119c-10,1 -18,2 -26,2 -46,0 -85,-15 -115,-46 -31,-30 -47,-68 -47,-114 0,-44 16,-82 47,-113 31,-31 69,-47 113,-47 50,0 89,15 118,44 28,29 43,69 43,119l0 151 -116 0 0 -143c0,-16 -4,-29 -12,-38 -7,-10 -18,-15 -31,-15 -12,0 -23,5 -31,14 -9,8 -13,19 -13,31 0,13 4,23 12,31 7,8 18,12 30,12 10,0 19,-2 28,-7z"/>
  <path class="fil1 str0" d="M1898 983l114 -4c-3,44 -20,81 -50,109 -29,29 -66,43 -108,43 -45,0 -83,-16 -114,-47 -32,-32 -47,-70 -47,-115 0,-44 16,-81 47,-111 31,-31 69,-47 113,-47 38,0 72,13 101,37 30,24 48,55 55,92l-116 5c-11,-14 -23,-20 -39,-20 -13,0 -24,4 -32,13 -8,8 -13,19 -13,32 0,14 5,25 14,34 9,9 20,13 33,13 20,0 33,-11 42,-34z"/>
  <path class="fil2 str2" d="M1510 1010l0 119c-10,1 -18,2 -26,2 -46,0 -85,-15 -115,-46 -31,-30 -46,-68 -46,-114 0,-44 15,-82 46,-113 31,-31 69,-47 113,-47 50,0 89,15 118,44 28,29 43,69 43,119l0 151 -116 0 0 -143c0,-16 -4,-29 -11,-38 -8,-10 -19,-15 -32,-15 -12,0 -22,5 -31,14 -9,8 -13,19 -13,31 0,13 4,23 12,31 8,8 18,12 30,12 10,0 19,-2 28,-7z"/>
  <path class="fil1 str0" d="M1041 1259l0 -100c15,6 29,10 41,10 37,0 61,-21 72,-63 -20,12 -39,18 -59,18 -28,0 -52,-11 -70,-32 -18,-21 -28,-48 -28,-81l0 -193 116 0 0 165c0,18 7,28 22,28 14,0 22,-11 22,-31l0 -162 115 0 0 274c0,51 -14,92 -43,123 -34,38 -76,56 -124,56 -22,0 -43,-4 -64,-12z"/>
  <path class="fil4" d="M792 925c-13,0 -23,4 -32,13 -8,9 -13,20 -13,33 0,13 5,24 13,33 9,9 19,13 32,13 12,0 22,-4 31,-13 9,-9 13,-20 13,-33 0,-13 -4,-24 -13,-33 -8,-9 -19,-13 -31,-13z"/>
  <path class="fil5 str0" d="M795 811c43,0 81,16 112,47 31,32 46,69 46,113 0,44 -15,82 -47,113 -31,31 -69,47 -114,47 -45,0 -83,-16 -114,-47 -32,-31 -48,-69 -48,-113 0,-45 16,-83 48,-114 31,-30 70,-46 117,-46z"/>
  <path class="fil1 str0" d="M298 704l152 0c91,0 136,36 136,107 0,36 -15,65 -46,88 45,20 67,55 67,105 0,38 -13,69 -40,91 -13,11 -26,19 -41,23 -15,4 -35,7 -60,7l-24 0 0 -108 22 0c12,0 21,-2 26,-5 5,-3 8,-9 8,-17 0,-14 -11,-20 -31,-20l-25 0 0 -112c24,0 35,-8 35,-24 0,-15 -10,-22 -31,-22l-23 0 0 308 -125 0 0 -421z"/>
 </g>
</svg>
