<?xml version="1.0" encoding="UTF-8"?>
<!DOCTYPE svg PUBLIC "-//W3C//DTD SVG 1.1//EN" "http://www.w3.org/Graphics/SVG/1.1/DTD/svg11.dtd">
<!-- Creator: CorelDRAW X7 -->
<svg xmlns="http://www.w3.org/2000/svg" xml:space="preserve" width="30mm" height="10mm" version="1.1" style="shape-rendering:geometricPrecision; text-rendering:geometricPrecision; image-rendering:optimizeQuality; fill-rule:evenodd; clip-rule:evenodd"
viewBox="0 0 3000 1000"
 xmlns:xlink="http://www.w3.org/1999/xlink">
 <defs>
  <style type="text/css">
   <![CDATA[
    .str2 {stroke:#373435;stroke-width:25}
    .str0 {stroke:#373435;stroke-width:20}
    .str1 {stroke:#373435;stroke-width:10}
    .fil3 {fill:#F0E928;fill-rule:nonzero}
    .fil1 {fill:#B4B6DB;fill-rule:nonzero}
    .fil5 {fill:#87A7D7;fill-rule:nonzero}
    .fil2 {fill:#87A7D7;fill-rule:nonzero}
    .fil4 {fill:#5E56A3;fill-rule:nonzero}
    .fil0 {fill:#3551A1;fill-rule:nonzero}
   ]]>
  </style>
 </defs>
 <g id="Capa_x0020_1">
  <metadata id="CorelCorpID_0Corel-Layer"/>
  <path class="fil0 str0" d="M2853 506l0 90c-7,1 -14,2 -20,2 -35,0 -64,-12 -87,-35 -24,-23 -35,-52 -35,-86 0,-34 11,-63 35,-86 24,-24 52,-36 86,-36 38,0 67,11 89,33 22,23 33,53 33,91l0 114 -88 0 0 -108c0,-12 -3,-22 -9,-29 -6,-8 -14,-11 -24,-11 -9,0 -17,3 -23,10 -7,7 -10,14 -10,24 0,9 3,17 9,23 6,7 13,10 23,10 7,0 14,-2 21,-6z"/>
  <path class="fil1 str0" d="M2626 256c12,0 22,4 31,13 8,8 13,18 13,29 0,13 -4,23 -13,30 -8,8 -18,12 -31,12 -13,0 -23,-4 -32,-12 -8,-7 -12,-17 -12,-30 0,-11 4,-21 13,-29 9,-9 19,-13 31,-13z"/>
  <path class="fil1 str0" d="M2585 360l87 0 0 197c0,41 -10,74 -29,98 -25,31 -59,46 -103,46 -13,0 -28,-3 -44,-8l0 -83c14,7 27,11 37,11 34,0 52,-26 52,-77l0 -184z"/>
  <path class="fil0 str1" d="M2401 506l0 90c-7,1 -13,2 -19,2 -35,0 -64,-12 -88,-35 -23,-23 -35,-52 -35,-86 0,-34 12,-63 36,-86 23,-24 52,-36 86,-36 37,0 67,11 89,33 21,23 32,53 32,91l0 114 -87 0 0 -108c0,-12 -3,-22 -9,-29 -6,-8 -14,-11 -24,-11 -9,0 -17,3 -24,10 -6,7 -10,14 -10,24 0,9 3,17 9,23 6,7 14,10 23,10 8,0 15,-2 21,-6z"/>
  <path class="fil1 str0" d="M2177 256c12,0 22,4 31,13 9,8 13,18 13,29 0,12 -4,23 -12,30 -9,8 -19,12 -32,12 -13,0 -23,-4 -31,-12 -9,-7 -13,-18 -13,-30 0,-11 5,-21 13,-29 9,-9 19,-13 31,-13z"/>
  <polygon class="fil2 str0" points="2220,360 2220,593 2133,593 2133,360 "/>
  <polygon class="fil0 str0" points="2119,274 1980,611 1842,274 1951,274 1981,374 2013,274 "/>
  <polygon class="fil3 str0" points="1610,282 1665,282 1610,337 1561,337 "/>
  <path class="fil2 str0" d="M1612 506l0 90c-8,1 -14,2 -20,2 -35,0 -64,-12 -87,-35 -24,-23 -35,-52 -35,-86 0,-34 11,-63 35,-86 23,-24 52,-36 86,-36 38,0 67,11 89,33 22,23 33,53 33,91l0 114 -88 0 0 -108c0,-12 -3,-22 -9,-29 -6,-8 -14,-11 -24,-11 -9,0 -17,3 -24,10 -6,7 -9,14 -9,24 0,9 3,17 9,23 6,7 13,10 23,10 7,0 14,-2 21,-6z"/>
  <path class="fil1 str0" d="M1357 486l87 -3c-2,33 -15,61 -38,82 -22,22 -50,33 -82,33 -34,0 -63,-12 -87,-36 -23,-24 -35,-53 -35,-87 0,-33 12,-61 36,-85 23,-23 52,-35 85,-35 29,0 55,9 77,28 23,18 37,42 42,70l-89 3c-7,-10 -17,-15 -29,-15 -10,0 -18,4 -24,10 -6,7 -10,15 -10,25 0,10 4,19 10,26 7,6 16,10 26,10 15,0 25,-9 31,-26z"/>
  <path class="fil2 str2" d="M1063 506l0 90c-8,1 -14,2 -20,2 -35,0 -64,-12 -87,-35 -24,-23 -36,-52 -36,-86 0,-34 12,-63 36,-86 23,-24 52,-36 86,-36 38,0 67,11 89,33 22,23 33,53 33,91l0 114 -88 0 0 -108c0,-12 -3,-22 -9,-29 -6,-8 -14,-11 -24,-11 -9,0 -17,3 -24,10 -6,7 -9,14 -9,24 0,9 3,17 9,23 6,7 13,10 22,10 8,0 15,-2 22,-6z"/>
  <path class="fil1 str0" d="M707 695l0 -76c11,5 22,8 31,8 28,0 46,-16 55,-48 -15,9 -30,14 -45,14 -22,0 -39,-8 -54,-25 -13,-16 -20,-36 -20,-61l0 -147 87 0 0 125c0,15 6,22 17,22 11,0 17,-8 17,-24l0 -123 87 0 0 208c0,39 -11,70 -33,94 -26,28 -57,43 -94,43 -16,0 -32,-4 -48,-10z"/>
  <path class="fil4" d="M517 441c-9,0 -17,4 -23,11 -7,6 -10,15 -10,25 0,9 3,18 10,25 6,6 14,10 23,10 10,0 18,-4 24,-10 7,-7 10,-16 10,-25 0,-10 -3,-19 -10,-25 -6,-7 -14,-11 -24,-11z"/>
  <path class="fil5 str0" d="M520 355c33,0 61,12 85,36 23,24 35,52 35,85 0,34 -12,63 -36,86 -24,24 -53,36 -86,36 -34,0 -63,-12 -87,-36 -24,-23 -36,-52 -36,-86 0,-34 12,-62 36,-86 24,-23 53,-35 89,-35z"/>
  <path class="fil1 str0" d="M143 274l115 0c69,0 103,27 103,81 0,27 -11,49 -35,67 34,15 51,41 51,79 0,29 -10,53 -30,70 -10,8 -20,14 -32,17 -11,3 -26,5 -45,5l-18 0 0 -82 16 0c10,0 17,-1 20,-3 4,-3 6,-7 6,-13 0,-11 -8,-16 -24,-16l-18 0 0 -85c18,0 26,-6 26,-18 0,-11 -7,-16 -23,-16l-18 0 0 233 -94 0 0 -319z"/>
 </g>
</svg>
