<?xml version="1.0" encoding="UTF-8"?>
<!DOCTYPE svg PUBLIC "-//W3C//DTD SVG 1.1//EN" "http://www.w3.org/Graphics/SVG/1.1/DTD/svg11.dtd">
<!-- Creator: CorelDRAW X7 -->
<svg xmlns="http://www.w3.org/2000/svg" xml:space="preserve" width="55mm" height="10mm" version="1.1" style="shape-rendering:geometricPrecision; text-rendering:geometricPrecision; image-rendering:optimizeQuality; fill-rule:evenodd; clip-rule:evenodd"
viewBox="0 0 5500 1000"
 xmlns:xlink="http://www.w3.org/1999/xlink">
 <defs>
  <style type="text/css">
   <![CDATA[
    .str1 {stroke:#373435;stroke-width:25}
    .str0 {stroke:#373435;stroke-width:20}
    .fil1 {fill:none;fill-rule:nonzero}
    .fil0 {fill:#FEFEFE;fill-rule:nonzero}
   ]]>
  </style>
 </defs>
 <g id="Capa_x0020_1">
  <metadata id="CorelCorpID_0Corel-Layer"/>
  <path class="fil0 str0" d="M4962 514l0 165c-13,3 -25,4 -36,4 -64,0 -117,-22 -160,-64 -42,-42 -64,-95 -64,-158 0,-62 22,-115 65,-158 43,-43 96,-64 158,-64 68,0 123,20 163,60 39,41 59,96 59,166l0 209 -160 0 0 -198c0,-22 -6,-40 -16,-54 -11,-13 -26,-20 -44,-20 -17,0 -31,7 -44,19 -12,12 -18,27 -18,43 0,18 6,33 17,44 11,11 25,17 42,17 14,0 27,-4 38,-11z"/>
  <path class="fil0 str0" d="M4547 58c22,0 41,7 57,23 16,15 24,33 24,54 0,22 -8,40 -23,54 -15,15 -34,22 -58,22 -23,0 -42,-7 -57,-22 -15,-14 -23,-32 -23,-54 0,-21 8,-39 24,-54 16,-16 35,-23 56,-23z"/>
  <path class="fil0 str0" d="M4472 248l160 0 0 360c0,75 -18,135 -54,179 -45,57 -107,85 -187,85 -24,0 -52,-5 -82,-16l0 -151c27,13 49,20 68,20 63,0 95,-47 95,-141l0 -336z"/>
  <path class="fil0 str0" d="M4137 514l0 165c-14,3 -26,4 -36,4 -64,0 -118,-22 -160,-64 -43,-42 -64,-95 -64,-158 0,-62 21,-115 64,-158 43,-43 96,-64 158,-64 69,0 123,20 163,60 39,41 59,96 59,166l0 209 -160 0 0 -198c0,-22 -5,-40 -16,-54 -11,-13 -26,-20 -44,-20 -17,0 -31,7 -43,19 -12,12 -19,27 -19,43 0,18 6,33 17,44 11,11 25,17 42,17 14,0 27,-4 39,-11z"/>
  <path class="fil0 str0" d="M3726 58c22,0 41,7 57,22 16,16 24,34 24,55 0,22 -8,40 -23,54 -15,15 -34,22 -58,22 -23,0 -42,-7 -57,-22 -15,-14 -23,-32 -23,-54 0,-21 8,-39 24,-55 16,-15 35,-22 56,-22z"/>
  <polygon class="fil0 str0" points="3806,248 3806,674 3645,674 3645,248 "/>
  <polygon class="fil0 str0" points="3620,90 3365,707 3113,90 3314,90 3367,272 3426,90 "/>
  <polygon class="fil0 str0" points="2689,105 2790,105 2689,205 2599,205 "/>
  <path class="fil0 str0" d="M2692 514l0 165c-13,3 -25,4 -36,4 -64,0 -117,-22 -160,-64 -43,-42 -64,-95 -64,-158 0,-62 21,-115 65,-158 43,-43 95,-64 157,-64 69,0 123,20 163,60 40,41 60,96 60,166l0 209 -161 0 0 -198c0,-22 -5,-40 -16,-54 -11,-13 -25,-20 -44,-20 -16,0 -31,7 -43,19 -12,12 -18,27 -18,43 0,18 5,33 16,44 11,11 25,17 42,17 14,0 27,-4 39,-11z"/>
  <path class="fil0 str0" d="M2227 478l158 -6c-4,61 -27,112 -69,151 -41,40 -91,60 -150,60 -63,0 -116,-22 -159,-66 -43,-43 -65,-97 -65,-160 0,-60 22,-111 65,-154 44,-43 96,-64 157,-64 54,0 101,17 141,50 41,34 66,77 76,129l-162 6c-14,-19 -31,-28 -53,-28 -18,0 -33,6 -44,18 -12,12 -18,27 -18,46 0,18 6,34 19,46 12,13 27,19 46,19 27,0 46,-16 58,-47z"/>
  <path class="fil0 str1" d="M1688 514l0 165c-14,3 -26,4 -36,4 -64,0 -118,-22 -160,-64 -43,-42 -64,-95 -64,-158 0,-62 21,-115 64,-158 43,-43 96,-64 158,-64 69,0 123,20 163,60 39,41 59,96 59,166l0 209 -160 0 0 -198c0,-22 -5,-40 -16,-54 -11,-13 -26,-20 -44,-20 -17,0 -31,7 -43,19 -13,12 -19,27 -19,43 0,18 6,33 17,44 11,11 25,17 42,17 14,0 27,-4 39,-11z"/>
  <path class="fil0 str0" d="M1036 860l0 -138c22,9 41,13 57,13 52,0 85,-29 101,-87 -28,16 -55,25 -82,25 -40,0 -72,-15 -98,-44 -25,-30 -38,-68 -38,-113l0 -268 160 0 0 229c0,26 10,38 31,38 20,0 30,-14 30,-42l0 -225 160 0 0 380c0,71 -20,128 -60,172 -47,52 -105,78 -172,78 -30,0 -60,-6 -89,-18z"/>
  <path class="fil0 str0" d="M690 396c-17,0 -32,7 -44,19 -12,12 -18,28 -18,46 0,17 6,32 19,45 12,13 26,19 43,19 17,0 32,-6 44,-19 12,-13 18,-28 18,-45 0,-18 -6,-34 -18,-46 -12,-12 -27,-19 -44,-19z"/>
  <path class="fil1 str0" d="M694 239c61,0 113,21 156,65 43,43 65,96 65,156 0,62 -22,114 -66,158 -44,43 -97,65 -159,65 -62,0 -115,-22 -158,-66 -44,-43 -66,-95 -66,-157 0,-62 22,-115 66,-157 43,-43 98,-64 162,-64z"/>
  <path class="fil0 str0" d="M4 90l212 0c126,0 188,49 188,148 0,49 -21,90 -64,123 62,27 93,75 93,145 0,53 -18,96 -55,127 -18,15 -37,26 -57,32 -21,6 -48,9 -83,9l-33 0 0 -150 29 0c18,0 30,-2 37,-7 7,-4 11,-12 11,-23 0,-19 -15,-29 -44,-29l-33 0 0 -155c32,0 48,-11 48,-33 0,-20 -14,-30 -43,-30l-32 0 0 427 -174 0 0 -584z"/>
 </g>
</svg>
